<?xml version="1.0" encoding="UTF-8" standalone="no"?><!DOCTYPE svg PUBLIC "-//W3C//DTD SVG 1.1//EN" "http://www.w3.org/Graphics/SVG/1.1/DTD/svg11.dtd"><svg width="100%" height="100%" viewBox="0 0 908 312" version="1.1" xmlns="http://www.w3.org/2000/svg" xmlns:xlink="http://www.w3.org/1999/xlink" xml:space="preserve" xmlns:serif="http://www.serif.com/" style="fill-rule:evenodd;clip-rule:evenodd;stroke-linecap:round;stroke-linejoin:round;stroke-miterlimit:1.5;"><rect id="アートボード1" x="0" y="0" width="907.087" height="311.811" style="fill:none;"/><g><rect x="24.472" y="22.248" width="85.039" height="120.246" style="fill:#ebebeb;stroke:#000;stroke-width:0.24px;"/><g transform="matrix(80,0,0,80,91.871528,111.85096)"></g><text x="42.112px" y="111.851px" style="font-family:'NotoSansJP-Medium', 'Noto Sans JP', sans-serif;font-weight:500;font-size:80px;fill:#1d1d1d;">A</text><rect x="113.839" y="22.248" width="85.039" height="120.246" style="fill:#ebebeb;stroke:#000;stroke-width:0.24px;"/><g transform="matrix(80,0,0,80,180.838728,111.85096)"></g><text x="127.479px" y="111.851px" style="font-family:'NotoSansJP-Medium', 'Noto Sans JP', sans-serif;font-weight:500;font-size:80px;fill:#1d1d1d;">B</text><rect x="203.13" y="22.248" width="85.039" height="120.246" style="fill:#ebebeb;stroke:#000;stroke-width:0.24px;"/><g transform="matrix(80,0,0,80,270.530066,111.81096)"></g><text x="218.85px" y="111.811px" style="font-family:'NotoSansJP-Medium', 'Noto Sans JP', sans-serif;font-weight:500;font-size:80px;fill:#1d1d1d;">C</text><rect x="292.422" y="22.248" width="85.039" height="120.246" style="fill:#ebebeb;stroke:#000;stroke-width:0.24px;"/><g transform="matrix(80,0,0,80,361.261405,111.85096)"></g><text x="305.341px" y="111.851px" style="font-family:'NotoSansJP-Medium', 'Noto Sans JP', sans-serif;font-weight:500;font-size:80px;fill:#1d1d1d;">D</text></g><g><rect x="525.341" y="22.248" width="85.039" height="120.246" style="fill:#ebebeb;stroke:#000;stroke-width:0.24px;"/><g transform="matrix(80,0,0,80,592.741085,111.85096)"></g><text x="542.981px" y="111.851px" style="font-family:'NotoSansJP-Medium', 'Noto Sans JP', sans-serif;font-weight:500;font-size:80px;fill:#1d1d1d;">A</text><rect x="808.636" y="165.644" width="85.039" height="120.246" style="fill:#ebebeb;stroke:#000;stroke-width:0.24px;"/><g transform="matrix(80,0,0,80,875.635399,255.246374)"></g><text x="822.275px" y="255.246px" style="font-family:'NotoSansJP-Medium', 'Noto Sans JP', sans-serif;font-weight:500;font-size:80px;fill:#1d1d1d;">B</text><rect x="719.344" y="165.644" width="85.039" height="120.246" style="fill:#ebebeb;stroke:#000;stroke-width:0.24px;"/><g transform="matrix(80,0,0,80,786.744061,255.206374)"></g><text x="735.064px" y="255.206px" style="font-family:'NotoSansJP-Medium', 'Noto Sans JP', sans-serif;font-weight:500;font-size:80px;fill:#1d1d1d;">C</text><rect x="614.741" y="22.248" width="85.039" height="120.246" style="fill:#ebebeb;stroke:#000;stroke-width:0.24px;"/><g transform="matrix(80,0,0,80,683.58044,111.85096)"></g><text x="627.66px" y="111.851px" style="font-family:'NotoSansJP-Medium', 'Noto Sans JP', sans-serif;font-weight:500;font-size:80px;fill:#1d1d1d;">D</text></g><path d="M400.062,166.62l0,-28.344l67.184,0l0,-21.261l35.433,35.433l-35.433,35.433l0,-21.261l-67.184,0Z" style="fill:#969696;"/></svg>