<?xml version="1.0" encoding="UTF-8" standalone="no"?><!DOCTYPE svg PUBLIC "-//W3C//DTD SVG 1.1//EN" "http://www.w3.org/Graphics/SVG/1.1/DTD/svg11.dtd"><svg width="100%" height="100%" viewBox="0 0 908 312" version="1.1" xmlns="http://www.w3.org/2000/svg" xmlns:xlink="http://www.w3.org/1999/xlink" xml:space="preserve" xmlns:serif="http://www.serif.com/" style="fill-rule:evenodd;clip-rule:evenodd;stroke-linecap:round;stroke-linejoin:round;stroke-miterlimit:1.5;"><rect id="アートボード1" x="0" y="0" width="907.087" height="311.811" style="fill:none;"/><g><rect x="24.472" y="22.248" width="85.039" height="120.246" style="fill:#ebebeb;stroke:#000;stroke-width:0.24px;"/><g transform="matrix(80,0,0,80,91.871528,111.85096)"></g><text x="42.112px" y="111.851px" style="font-family:'NotoSansJP-Medium', 'Noto Sans JP', sans-serif;font-weight:500;font-size:80px;fill:#1d1d1d;">A</text><rect x="113.839" y="22.248" width="85.039" height="120.246" style="fill:#ebebeb;stroke:#000;stroke-width:0.24px;"/><g transform="matrix(80,0,0,80,180.838728,111.85096)"></g><text x="127.479px" y="111.851px" style="font-family:'NotoSansJP-Medium', 'Noto Sans JP', sans-serif;font-weight:500;font-size:80px;fill:#1d1d1d;">B</text><rect x="203.13" y="22.248" width="85.039" height="120.246" style="fill:#ebebeb;stroke:#000;stroke-width:0.24px;"/><g transform="matrix(80,0,0,80,270.530066,111.81096)"></g><text x="218.85px" y="111.811px" style="font-family:'NotoSansJP-Medium', 'Noto Sans JP', sans-serif;font-weight:500;font-size:80px;fill:#1d1d1d;">C</text><rect x="292.422" y="22.248" width="85.039" height="120.246" style="fill:#ebebeb;stroke:#000;stroke-width:0.24px;"/><g transform="matrix(80,0,0,80,361.261405,111.85096)"></g><text x="305.341px" y="111.851px" style="font-family:'NotoSansJP-Medium', 'Noto Sans JP', sans-serif;font-weight:500;font-size:80px;fill:#1d1d1d;">D</text></g><g><path d="M703.978,169.317l0,120.246c0,0 -19.612,-10.021 -42.573,-10.021c-20.035,0 -42.467,6.62 -42.467,6.62l0,-120.246c0,0 23.306,-6.62 42.467,-6.62c21.952,0 42.573,10.021 42.573,10.021Z" style="fill:#ebebeb;stroke:#000;stroke-width:0.24px;"/><path d="M703.978,169.317l0,120.246c0,0 19.612,-10.021 42.573,-10.021c20.035,0 42.467,6.62 42.467,6.62l0,-120.246c0,0 -23.306,-6.62 -42.467,-6.62c-21.952,0 -42.573,10.021 -42.573,10.021Z" style="fill:#ebebeb;stroke:#000;stroke-width:0.24px;"/><g transform="matrix(-1,0,0,1,1556.379085,0)"><g transform="matrix(54.312589,0,0,54.312589,846.784873,211.601136)"></g><text x="813.002px" y="211.601px" style="font-family:'NotoSansJP-Medium', 'Noto Sans JP', sans-serif;font-weight:500;font-size:54.313px;fill:#969696;">A</text></g><g transform="matrix(54.312589,0,0,54.312589,785.623254,211.601136)"></g><text x="749.397px" y="211.601px" style="font-family:'NotoSansJP-Medium', 'Noto Sans JP', sans-serif;font-weight:500;font-size:54.313px;fill:#1d1d1d;">B</text><g transform="matrix(54.312589,0,0,54.312589,699.969348,212.3072)"></g><text x="664.883px" y="212.307px" style="font-family:'NotoSansJP-Medium', 'Noto Sans JP', sans-serif;font-weight:500;font-size:54.313px;fill:#1d1d1d;">C</text><g transform="matrix(-1,0,0,1,1388.581474,0)"><g transform="matrix(54.312589,0,0,54.312589,767.068137,211.601136)"></g><text x="729.104px" y="211.601px" style="font-family:'NotoSansJP-Medium', 'Noto Sans JP', sans-serif;font-weight:500;font-size:54.313px;fill:#969696;">D</text></g></g><g><rect x="525.341" y="22.248" width="85.039" height="120.246" style="fill:#ebebeb;stroke:#000;stroke-width:0.24px;"/><g transform="matrix(80,0,0,80,592.741085,111.85096)"></g><text x="542.981px" y="111.851px" style="font-family:'NotoSansJP-Medium', 'Noto Sans JP', sans-serif;font-weight:500;font-size:80px;fill:#1d1d1d;">A</text><rect x="797.575" y="22.248" width="85.039" height="120.246" style="fill:#ebebeb;stroke:#000;stroke-width:0.24px;"/><g transform="matrix(80,0,0,80,864.575086,111.85096)"></g><text x="811.215px" y="111.851px" style="font-family:'NotoSansJP-Medium', 'Noto Sans JP', sans-serif;font-weight:500;font-size:80px;fill:#1d1d1d;">B</text><rect x="708.284" y="22.248" width="85.039" height="120.246" style="fill:#ebebeb;stroke:#000;stroke-width:0.24px;"/><g transform="matrix(80,0,0,80,775.683748,111.81096)"></g><text x="724.004px" y="111.811px" style="font-family:'NotoSansJP-Medium', 'Noto Sans JP', sans-serif;font-weight:500;font-size:80px;fill:#1d1d1d;">C</text><rect x="614.741" y="22.248" width="85.039" height="120.246" style="fill:#ebebeb;stroke:#000;stroke-width:0.24px;"/><g transform="matrix(80,0,0,80,683.58044,111.85096)"></g><text x="627.66px" y="111.851px" style="font-family:'NotoSansJP-Medium', 'Noto Sans JP', sans-serif;font-weight:500;font-size:80px;fill:#1d1d1d;">D</text></g><path d="M400.062,166.62l0,-28.344l67.184,0l0,-21.261l35.433,35.433l-35.433,35.433l0,-21.261l-67.184,0Z" style="fill:#969696;"/></svg>